<svg width="20" height="20" viewBox="0 0 20 20" fill="none" xmlns="http://www.w3.org/2000/svg">
<path d="M2.5 9.16683H6.66667M4.58333 11.2502V7.0835M12.0833 11.6668C15.0903 11.6668 16.6951 12.6735 17.2609 14.6869C17.5598 15.7503 16.6046 16.6668 15.5 16.6668H8.66666C7.56209 16.6668 6.60687 15.7503 6.90573 14.6869C7.47159 12.6735 9.07637 11.6668 12.0833 11.6668ZM12.0833 8.3335C13.4722 8.3335 14.1667 7.61921 14.1667 5.8335C14.1667 4.04778 13.4722 3.3335 12.0833 3.3335C10.6944 3.3335 10 4.04778 10 5.8335C10 7.61921 10.6944 8.3335 12.0833 8.3335Z" stroke="#121212" stroke-width="1.5" stroke-linecap="round" stroke-linejoin="round"/>
</svg>
